o ModelComponent
v -0.3 0.15 -0.3
v 0.3 0.15 -0.3
v 0.313244343124079 0.146359192728339 -0.313244343124079
v -0.313244343124079 0.146359192728339 -0.313244343124079
v 0.325 0.135355339059327 -0.325
v -0.325 0.135355339059327 -0.325
v 0.332544761199567 0.119536556424464 -0.332544761199567
v -0.332544761199567 0.119536556424464 -0.332544761199567
v 0.335355339059327 0.1 -0.335355339059327
v -0.335355339059327 0.1 -0.335355339059327
v 0.3 0.15 0.3
v 0.313244343124079 0.146359192728339 0.313244343124079
v 0.325 0.135355339059327 0.325
v 0.332544761199567 0.119536556424464 0.332544761199567
v 0.335355339059327 0.1 0.335355339059327
v -0.3 0.15 0.3
v -0.313244343124079 0.146359192728339 0.313244343124079
v -0.325 0.135355339059327 0.325
v -0.332544761199567 0.119536556424464 0.332544761199567
v -0.335355339059327 0.1 0.335355339059327
v 0.286755656875921 0.146359192728339 0.286755656875921
v -0.286755656875921 0.146359192728339 0.286755656875921
v 0.275 0.135355339059327 0.275
v -0.275 0.135355339059327 0.275
v 0.267455238800432 0.119536556424464 0.267455238800432
v -0.267455238800432 0.119536556424464 0.267455238800432
v 0.264644660940673 0.1 0.264644660940673
v -0.264644660940673 0.1 0.264644660940673
v 0.286755656875921 0.146359192728339 -0.286755656875921
v 0.275 0.135355339059327 -0.275
v 0.267455238800432 0.119536556424464 -0.267455238800432
v 0.264644660940673 0.1 -0.264644660940673
v -0.286755656875921 0.146359192728339 -0.286755656875921
v -0.275 0.135355339059327 -0.275
v -0.267455238800432 0.119536556424464 -0.267455238800432
v -0.264644660940673 0.1 -0.264644660940673
vn 0 0.05 0
vn 0 0.0463591927283394 -0.0187303296707956
vn 0 0.0353553390593274 -0.0353553390593274
vn 0 0.0195365564244637 -0.046025242672622
vn -5.55111512312578E-17 0 -0.0499999999999999
vn 0.0187303296707956 0.0463591927283394 0
vn 0.0353553390593274 0.0353553390593274 0
vn 0.046025242672622 0.0195365564244637 0
vn 0.0499999999999999 0 -5.55111512312578E-17
vn 0 0.0463591927283394 0.0187303296707956
vn 0 0.0353553390593274 0.0353553390593274
vn 0 0.0195365564244637 0.046025242672622
vn 5.55111512312578E-17 0 0.0499999999999999
vn -0.0187303296707956 0.0463591927283394 0
vn -0.0353553390593274 0.0353553390593274 0
vn -0.046025242672622 0.0195365564244637 0
vn -0.0499999999999999 0 5.55111512312578E-17
vn -5.55111512312578E-17 0 -0.05
vn -0.05 0 5.55111512312578E-17
vn 5.55111512312578E-17 0 0.05
vn 0.05 0 -5.55111512312578E-17
g ModelComponent
f 1//1 2//1 3//2 4//2
f 4//2 3//2 5//3 6//3
f 6//3 5//3 7//4 8//4
f 8//4 7//4 9//5 10//5
f 10//5 9//5 9//5 10//5
f 2//1 11//1 12//6 3//6
f 3//6 12//6 13//7 5//7
f 5//7 13//7 14//8 7//8
f 7//8 14//8 15//9 9//9
f 9//9 15//9 15//9 9//9
f 11//1 16//1 17//10 12//10
f 12//10 17//10 18//11 13//11
f 13//11 18//11 19//12 14//12
f 14//12 19//12 20//13 15//13
f 15//13 20//13 20//13 15//13
f 16//1 1//1 4//14 17//14
f 17//14 4//14 6//15 18//15
f 18//15 6//15 8//16 19//16
f 19//16 8//16 10//17 20//17
f 20//17 10//17 10//17 20//17
f 16//1 11//1 21//2 22//2
f 22//2 21//2 23//3 24//3
f 24//3 23//3 25//4 26//4
f 26//4 25//4 27//18 28//18
f 28//18 27//18 27//18 28//18
f 11//1 2//1 29//14 21//14
f 21//14 29//14 30//15 23//15
f 23//15 30//15 31//16 25//16
f 25//16 31//16 32//19 27//19
f 27//19 32//19 32//19 27//19
f 2//1 1//1 33//10 29//10
f 29//10 33//10 34//11 30//11
f 30//11 34//11 35//12 31//12
f 31//12 35//12 36//20 32//20
f 32//20 36//20 36//20 32//20
f 1//1 16//1 22//6 33//6
f 33//6 22//6 24//7 34//7
f 34//7 24//7 26//8 35//8
f 35//8 26//8 28//21 36//21
f 36//21 28//21 28//21 36//21
#h 
